<?xml version="1.0" encoding="UTF-8"?>
<svg xmlns="http://www.w3.org/2000/svg" id="Livello_1" viewBox="0 0 500.64 125.44">
  <defs>
    <style>.cls-1{fill:#3e8add;}.cls-2{fill:#58595b;}</style>
  </defs>
  <path class="cls-1" d="m118.77,119.71c-5.39-4.35-10.79-8.68-16.19-13.01-5.5-4.41-10.99-8.83-16.45-13.27-1.54-1.25-2.54-1.25-4.09-.1-2.29,1.7-4.65,3.43-7.24,4.58-12.69,5.63-29.13,3.56-40.23-8.24-16.75-17.81-15.01-45.35,5.67-60.49,17.68-12.95,41.58-5.98,51.93,12.82,6.2,11.26,5.6,23.11,1,34.83-.76,1.94-.5,2.98,1.15,4.15,5.36,3.81,10.67,7.67,15.89,11.66.91.7,1.6,1.03,2.19.97,5.17-9.19,8.13-19.88,8.13-31.28C120.54,27.9,93.55,0,60.27,0S0,27.9,0,62.33c0,22.85,11.89,42.82,29.62,53.67,17.43,10.11,35.65,10.7,54.1,3.76,1.25-.47,2.51-.98,3.76-1.52,1.46-.63,3.42-.82,4.96-.45,9.28,2.23,18.49,4.7,27.75,7.02.95.24,2.01.03,3.02.03.11-.24.23-.47.34-.71-1.59-1.48-3.09-3.07-4.78-4.43Z"></path>
  <path class="cls-2" d="m173.75,78.56c-1.97,6.81-3.95,13.62-5.91,20.43-2.13,7.37-4.27,14.73-6.37,22.11-.64,2.26-1.97,3.75-4.34,4.14-2.94.49-5.28-1.32-6.34-4.95-.75-2.57-1.35-5.18-2.08-7.76-4.91-17.15-9.81-34.29-14.78-51.42-.77-2.67-.17-4.81,2.01-6.36,1.97-1.4,4.26-1.18,5.9.4,1.19,1.15,2,2.9,2.47,4.53,3.66,12.7,7.19,25.43,10.77,38.15.26.94.6,1.85,1.51,2.73,1.89-6.54,3.76-13.1,5.69-19.63,2.22-7.53,4.56-15.03,6.74-22.57.79-2.73,2.3-4.48,5.24-4.4,2.92.09,4.48,2.09,5.23,4.64,2.17,7.35,4.22,14.74,6.34,22.11,1.85,6.46,3.72,12.92,5.82,20.21.6-1.33.94-1.9,1.12-2.51,3.87-13.31,7.72-26.62,11.58-39.94.99-3.41,3.35-5.01,6.3-4.3,3.31.8,4.6,3.05,3.51,6.86-4.47,15.63-9.05,31.24-13.58,46.85-1.26,4.35-2.62,8.67-3.73,13.06-.7,2.76-2.4,4.18-5.06,4.28-2.82.11-4.43-1.73-5.18-4.22-1.75-5.84-3.36-11.72-5.05-17.58-2.38-8.25-4.79-16.49-7.18-24.74-.21-.05-.42-.09-.62-.14Z"></path>
  <path class="cls-2" d="m292.33,106.11c2.75,5.49,6.84,8.11,11.96,8.4,3.29.19,6.7-.82,9.98-1.61,2.3-.55,4.64-.94,6.19.94.96,1.18,1.63,3.39,1.18,4.72-.54,1.63-2.13,3.4-3.72,4.11-20.48,9.2-36.86-6.96-37.44-22.27-.52-13.94,10.77-26.54,25.59-27.04,12.12-.41,21.51,7.62,25.05,18.01.85,2.49,1.2,5.24,1.29,7.89.17,4.68-1.8,6.59-6.52,6.61-9.91.05-19.83.01-29.74.03-1.07,0-2.14.12-3.83.21Zm29.15-11.05c-1.69-5.94-7.36-11.88-17.54-10.84-5.27.54-11.1,5.57-11.89,10.84h29.43Z"></path>
  <path class="cls-2" d="m368.58,106.1c2.56,4.82,6.02,7.69,10.59,8.25,3.36.41,7.01-.11,10.3-1.05,3.97-1.13,7.12-.86,8.33,1.77,1.37,3-.14,6.33-4.1,7.9-12,4.75-23.98,2.53-32.08-8.69-7.52-10.43-6.3-23.94,2.75-32.87,7.41-7.32,16.24-9.96,26.22-6.74,9.66,3.12,15.4,10.15,17.76,19.95.06.27.14.54.17.81.64,6.96.55,10.88-8.85,10.53-9.07-.34-18.16-.08-27.24-.07-1.07,0-2.14.11-3.85.2Zm29.15-11.01c-.17-.83-.17-1.22-.33-1.53-2.52-4.93-6.08-8.56-11.9-9.3-6.88-.88-12.43,1.21-16.02,7.39-.52.89-.64,2.01-.95,3.02.95.21,1.91.6,2.86.6,7.78.05,15.55.03,23.33.02.9,0,1.8-.12,3.01-.21Z"></path>
  <path class="cls-2" d="m468.05,91.48c3.9.97,7.35,1.83,10.81,2.69,4.22,1.06,8.45,2.11,12.66,3.18,8.05,2.05,11.64,10.14,7.17,17.09-4.74,7.36-11.8,11.08-20.65,10.86-8.56-.21-14.96-4.35-19.48-11.44-1.52-2.38-1.02-4.88.95-6.48,2.25-1.82,4.79-1.73,6.98.33.87.82,1.68,1.72,2.48,2.62,5.42,6.03,14.13,6.01,19.5-.05,1.73-1.95,1.5-2.64-1.09-3.27-6.83-1.67-13.61-3.62-20.51-4.95-8.92-1.72-12.44-12.3-5.55-19.87,9.87-10.82,26.46-10.33,34.71-1.52,1.32,1.41,2.53,2.95,3.59,4.57,1.38,2.11.86,5-.97,6.53-2,1.68-4.56,1.74-6.59-.06-1.86-1.65-3.38-3.71-5.36-5.17-4.99-3.7-12.62-2.78-16.69,1.84-.69.79-1.15,1.78-1.97,3.09Z"></path>
  <path class="cls-2" d="m422.11,91.49c3.67.91,7.12,1.77,10.56,2.63,4.49,1.12,9.03,2.1,13.48,3.39,7.88,2.29,10.99,10.73,6.24,17.46-9.08,12.87-28.52,15.17-39.46-.47-1.8-2.57-1.37-5.67.76-7.21,2.66-1.93,5.45-1.66,7.57,1.11,3.33,4.34,7.4,6.87,13.08,6.3,4.31-.43,7.32-2.65,9.69-6.61-1.07-.42-1.86-.84-2.7-1.05-6.83-1.7-13.69-3.29-20.51-5.05-9.26-2.4-12.19-11.16-6.35-18.73,9.53-12.35,28.28-12.38,37.81-.05,2.61,3.37,2.68,6.62.19,8.61-2.78,2.23-5.62,1.52-8.5-2.13-3.78-4.78-9.28-6.58-14.82-4.66-3.04,1.05-5.5,2.9-7.05,6.47Z"></path>
  <path class="cls-2" d="m251.84,77.59c7.67-5.22,15.68-5.69,24.03-2.62,3.07,1.13,4.27,3.29,3.65,6.26-.62,2.98-3,4.4-6.01,3.72-2.24-.51-4.52-1.16-6.8-1.21-8.73-.19-14.91,5.95-14.96,14.68-.04,6.65.02,13.3-.04,19.95-.02,2.33-.26,4.67-2.62,6.04-3.08,1.79-6.2.76-7.4-2.62-.45-1.27-.54-2.71-.54-4.07-.04-12.29-.02-24.57-.02-36.86,0-.18,0-.37,0-.55.05-3.9,1.35-6.28,3.82-6.98,2.51-.71,4.67.57,6.89,4.26Z"></path>
  <path class="cls-2" d="m337.36,89.65c0-9.33-.02-18.65.03-27.98,0-1.36.16-2.79.61-4.06.81-2.35,2.51-3.62,5.14-3.17,2.99.52,4.31,1.89,4.36,4.8.08,4.15.03,8.31.03,12.46,0,13.3.03,26.59-.03,39.89-.01,2.21.25,3.62,2.99,3.84,2.49.2,3.77,2.34,3.69,5.05-.07,2.67-1.52,4.53-4.11,4.73-2.67.21-5.38.23-8.05,0-3.06-.26-4.62-2.53-4.64-6.48-.05-7.66-.02-15.33-.02-22.99,0-2.03,0-4.06,0-6.09Z"></path>
  <path class="cls-2" d="m231.24,99.52c0,6.64.02,13.29,0,19.93-.02,3.7-1.92,5.76-5.24,5.8-2.84.04-4.87-2.12-4.89-5.58-.06-13.56-.05-27.12,0-40.68.01-3.4,2.11-5.79,4.75-5.72,3.27.1,5.35,2.25,5.38,5.78.05,6.83.01,13.65.02,20.48Z"></path>
  <g>
    <path class="cls-1" d="m245.29,60.44h0c2.29-.52,3.59-2.97,2.69-5.14-3.21-7.74-10.08-13.58-18.46-15.35-2.2-.46-4.31,1.11-4.53,3.35h0c-.2,1.93,1.08,3.7,2.97,4.1,5.9,1.26,10.75,5.38,13.01,10.84.7,1.69,2.54,2.6,4.33,2.2Z"></path>
    <path class="cls-1" d="m238.5,23.25c-.77-.18-1.54-.34-2.33-.47.79.13,1.56.29,2.33.47Z"></path>
    <path class="cls-1" d="m257.69,49.75c-1.45-4.25-3.84-8.07-6.94-11.2,3.08,3.09,5.49,6.89,6.94,11.2Z"></path>
    <path class="cls-1" d="m258.7,53.52s0-.03-.01-.05c-.08-.42-.18-.84-.28-1.25.11.43.21.86.29,1.3Z"></path>
    <path class="cls-1" d="m266.21,52.67c0,1.45-.82,2.78-2.1,3.41-.27.14-.56.25-.87.31-.16.03-.31.06-.47.07-1.89.19-3.67-1.06-4.07-2.95-.08-.44-.18-.87-.29-1.3-.04-.21-.1-.41-.16-.62-.17-.62-.35-1.24-.56-1.85-1.45-4.31-3.86-8.11-6.94-11.2-.23-.24-.47-.47-.72-.7-.15-.15-.3-.29-.45-.42-.15-.14-.3-.28-.46-.41-.43-.37-.87-.73-1.32-1.08-.16-.13-.33-.26-.5-.37-.17-.13-.33-.25-.5-.36-.29-.2-.57-.39-.87-.58-.42-.27-.85-.54-1.28-.79-.18-.1-.35-.2-.53-.3-.04-.02-.07-.05-.11-.06-.13-.07-.26-.14-.38-.21-.17-.09-.33-.18-.51-.27-.29-.15-.59-.29-.89-.43-.21-.1-.43-.2-.64-.29-.47-.21-.94-.39-1.42-.57-.13-.05-.26-.1-.39-.15-.11-.04-.23-.08-.34-.12-.18-.06-.36-.12-.55-.18-.18-.06-.37-.12-.55-.17-.56-.16-1.11-.31-1.68-.44-.13-.03-.26-.06-.39-.09-.25-.05-.5-.1-.75-.15-.25-.05-.51-.09-.76-.14-.48-.08-.96-.15-1.45-.2-.75-.09-1.51-.15-2.28-.18-.24-.01-.48-.02-.73-.02-1.92-.07-3.44-1.59-3.6-3.47-.01-.16-.01-.32,0-.49.01-.31.06-.62.15-.9.46-1.59,1.93-2.73,3.65-2.74h.09s.1,0,.15,0c.62,0,1.24.04,1.85.08.23.01.45.03.67.05.28.02.55.05.82.08.24.02.47.05.7.08.09.01.19.02.28.04.17.02.34.04.5.07.2.03.4.06.6.1.78.13,1.56.29,2.33.47.26.06.51.13.76.19.32.08.64.17.95.26.63.18,1.25.38,1.86.59,0,0,.01,0,.02,0,.63.22,1.26.46,1.89.72.39.16.78.33,1.16.5,1.45.66,2.85,1.41,4.19,2.23.33.21.67.42,1,.64.41.27.81.55,1.21.84.52.38,1.04.77,1.54,1.18.2.16.4.32.6.49.2.17.4.33.59.51.2.17.39.34.58.52.19.17.38.35.57.53.14.13.28.27.41.4.17.17.34.34.51.51.15.15.29.29.43.45.22.23.43.46.63.69.17.19.34.39.51.58.51.59,1,1.19,1.47,1.81.31.42.61.84.91,1.26.15.22.29.43.44.65.43.65.84,1.31,1.23,1.99.13.23.26.46.38.68.12.23.25.46.37.69.12.23.24.46.35.69.25.51.49,1.02.72,1.54.07.17.14.33.21.5.07.17.15.35.22.53.1.24.19.48.28.72.12.31.24.62.34.94.07.21.15.42.21.63.09.26.17.52.25.78.08.26.15.52.23.79.12.42.23.84.32,1.26.04.18.09.36.13.55.06.27.11.53.17.79.05.26.07.51.07.76Z"></path>
    <path class="cls-1" d="m241.59,32.28c.22.09.43.19.64.29-.09-.04-.19-.08-.28-.12-.12-.06-.24-.11-.36-.17Z"></path>
    <path class="cls-1" d="m231.04,29.88c-.21,0-.42,0-.64-.01-.03,0-.06,0-.09,0,.25,0,.49,0,.73.02Z"></path>
    <path class="cls-1" d="m234.77,30.26c-.48-.08-.96-.15-1.45-.2.49.05.97.12,1.45.2Z"></path>
    <path class="cls-1" d="m244.02,33.48c-.67-.37-1.36-.71-2.06-1.03-2.04-.92-4.2-1.61-6.43-2.04.25.05.5.1.75.15.13.03.27.06.39.09.57.13,1.13.28,1.68.44.18.05.37.11.55.17.18.06.36.12.55.18.11.04.23.08.34.12.13.05.27.09.39.15.48.18.95.36,1.42.57.22.09.43.19.64.29.3.14.6.29.89.43.17.09.34.18.51.27.13.07.26.14.38.21Z"></path>
    <path class="cls-1" d="m259.39,36.91c-.47-.62-.96-1.22-1.47-1.81.52.58,1,1.19,1.47,1.81Z"></path>
    <path class="cls-1" d="m261.97,40.81c-.39-.68-.8-1.34-1.23-1.99.44.65.85,1.31,1.23,1.99Z"></path>
    <path class="cls-1" d="m233.45,13.33c21.2,0,38.77,15.8,41.57,36.24.3,2.17,2.39,3.63,4.53,3.14l.12-.03c1.88-.43,3.15-2.22,2.89-4.13-3.29-24.19-24.02-42.83-49.11-42.83-.46,0-.92,0-1.38.02-1.87.05-3.4,1.51-3.59,3.37v.11c-.24,2.27,1.59,4.19,3.87,4.12.37-.01.73-.02,1.1-.02Z"></path>
  </g>
  <circle class="cls-1" cx="226.15" cy="62.81" r="5.1"></circle>
</svg>
